<svg xmlns="http://www.w3.org/2000/svg" width="512" height="512" viewBox="0 0 1024 1024" role="img" aria-label="Whiteout">
  <rect x="72" y="72" width="880" height="880" rx="220" fill="#090909" />
  <rect x="136" y="136" width="752" height="752" rx="182" fill="#f3efe8" />
  <path
    d="M244 710 L332 314 L428 314 L512 612 L596 314 L692 314 L780 710 L678 710 L640 482 L560 710 L464 710 L384 482 L346 710 Z"
    fill="#090909"
  />
  <path d="M212 252 L836 252" stroke="#090909" stroke-width="34" stroke-linecap="round" opacity="0.12" />
  <path d="M188 414 L812 414" stroke="#090909" stroke-width="18" stroke-linecap="round" opacity="0.08" />
  <g fill="#090909" opacity="0.22">
    <circle cx="214" cy="214" r="12" />
    <circle cx="286" cy="178" r="8" />
    <circle cx="774" cy="196" r="11" />
    <circle cx="826" cy="262" r="7" />
    <circle cx="176" cy="778" r="10" />
    <circle cx="794" cy="824" r="10" />
  </g>
</svg>
