<svg xmlns="http://www.w3.org/2000/svg" width="720" height="720" viewBox="0 0 720 720" role="img" aria-label="Whiteout helmet mark">
  <rect width="720" height="720" rx="176" fill="#090909" />
  <g fill="#f3efe8" opacity="0.9">
    <circle cx="116" cy="168" r="12" />
    <circle cx="154" cy="130" r="7" />
    <circle cx="564" cy="132" r="13" />
    <circle cx="610" cy="176" r="8" />
    <circle cx="126" cy="560" r="7" />
    <circle cx="590" cy="556" r="9" />
  </g>
  <path
    d="M170 422c0-128 86-222 214-222 115 0 195 63 230 181 15 49 19 93 10 148l-9 49H468l-17-70c-7-28-29-47-56-47H270c-33 0-58 26-58 58v59h-42V422Z"
    fill="#f3efe8"
  />
  <path
    d="M204 474c0-22 18-40 40-40h176c20 0 38 14 43 34l29 110H204V474Z"
    fill="#090909"
  />
  <path
    d="M266 364h212c25 0 53 12 73 33l34 35h-98c-12 0-24-5-31-14l-20-22c-7-8-18-12-29-12H250l16-20Z"
    fill="#f3efe8"
  />
  <path
    d="M280 401h126c19 0 37 8 50 22l19 22c4 4 8 6 13 6h118l-14 81H475l-15-56c-8-28-32-46-60-46H280c-9 0-18 2-26 6l26-35Z"
    fill="#f3efe8"
  />
  <path
    d="M258 409h146c20 0 38 13 43 33l12 48H224l5-30c5-29 28-51 59-51Z"
    fill="#090909"
  />
  <text
    x="332"
    y="468"
    fill="#f3efe8"
    font-family="'Arial Black', 'Impact', sans-serif"
    font-size="58"
    font-weight="900"
    letter-spacing="2"
    text-anchor="middle"
    transform="rotate(-5 332 468)"
  >WHITE</text>
  <text
    x="332"
    y="530"
    fill="#f3efe8"
    font-family="'Arial Black', 'Impact', sans-serif"
    font-size="64"
    font-weight="900"
    letter-spacing="2"
    text-anchor="middle"
    transform="rotate(-3 332 530)"
  >OUT</text>
</svg>
