<svg xmlns="http://www.w3.org/2000/svg" width="720" height="720" viewBox="0 0 720 720" role="img" aria-label="Whiteout helmet mark">
  <defs>
    <filter id="grain" x="-20%" y="-20%" width="140%" height="140%">
      <feTurbulence type="fractalNoise" baseFrequency="0.9" numOctaves="2" seed="7" result="noise" />
      <feColorMatrix
        in="noise"
        type="matrix"
        values="1 0 0 0 0
                0 1 0 0 0
                0 0 1 0 0
                0 0 0 28 -14"
        result="grainMask"
      />
      <feComposite in="SourceGraphic" in2="grainMask" operator="arithmetic" k1="0" k2="1" k3="0.18" k4="0" />
    </filter>
  </defs>

  <g fill="#f3efe8" opacity="0.92">
    <circle cx="106" cy="150" r="12" />
    <circle cx="152" cy="116" r="7" />
    <circle cx="214" cy="102" r="5" />
    <circle cx="576" cy="126" r="13" />
    <circle cx="622" cy="172" r="8" />
    <circle cx="608" cy="522" r="10" />
    <circle cx="94" cy="520" r="8" />
    <circle cx="140" cy="560" r="5" />
  </g>

  <g filter="url(#grain)">
    <path
      d="M168 424c0-129 86-224 215-224 116 0 196 63 232 182 15 51 19 95 9 150l-9 48H470l-18-72c-7-27-28-46-56-46H270c-32 0-58 26-58 58v60H168v-156Z"
      fill="#f3efe8"
    />
    <path
      d="M235 353c22-51 78-88 146-88 77 0 139 33 173 92l-29 14c-32-44-78-66-144-66-61 0-103 18-131 58l-15-10Z"
      fill="#0b0b0b"
      opacity="0.26"
    />
    <path
      d="M208 473c0-22 18-40 40-40h172c21 0 40 14 45 34l28 113H208v-107Z"
      fill="#0b0b0b"
    />
    <path
      d="M266 366h211c26 0 54 12 74 33l34 35h-98c-12 0-23-5-31-14l-20-22c-7-8-18-12-29-12H250l16-20Z"
      fill="#f3efe8"
    />
    <path
      d="M280 402h126c19 0 36 8 49 22l20 22c3 4 8 6 12 6h121l-15 82H476l-15-57c-7-27-31-46-59-46H280c-9 0-18 2-26 6l26-35Z"
      fill="#f3efe8"
    />
    <path
      d="M259 410h145c20 0 38 13 43 33l13 49H223l6-31c4-28 28-51 58-51Z"
      fill="#090909"
    />
    <text
      x="332"
      y="468"
      fill="#f3efe8"
      font-family="'Arial Black', 'Impact', sans-serif"
      font-size="58"
      font-weight="900"
      letter-spacing="2"
      text-anchor="middle"
      transform="rotate(-5 332 468)"
    >WHITE</text>
    <text
      x="330"
      y="529"
      fill="#f3efe8"
      font-family="'Arial Black', 'Impact', sans-serif"
      font-size="64"
      font-weight="900"
      letter-spacing="2"
      text-anchor="middle"
      transform="rotate(-3 330 529)"
    >OUT</text>
  </g>
</svg>
